<svg width="19" height="23" viewBox="0 0 19 23" fill="none" xmlns="http://www.w3.org/2000/svg">
<path d="M6 18V19C6 19.394 6.0776 19.7841 6.22836 20.1481C6.37913 20.512 6.6001 20.8427 6.87868 21.1213C7.15726 21.3999 7.48797 21.6209 7.85195 21.7716C8.21593 21.9224 8.60603 22 9 22C9.39397 22 9.78407 21.9224 10.1481 21.7716C10.512 21.6209 10.8427 21.3999 11.1213 21.1213C11.3999 20.8427 11.6209 20.512 11.7716 20.1481C11.9224 19.7841 12 19.394 12 19V18M15 10C15 13 17 18 17 18H1C1 18 3 14 3 10C3 6.732 5.732 4 9 4C12.268 4 15 6.732 15 10Z" stroke="white" stroke-width="1.5" stroke-linecap="round" stroke-linejoin="round"/>
<circle cx="15" cy="4" r="4" fill="#CF1F13"/>
</svg>
