<svg width="138" height="138" viewBox="0 0 138 138" fill="none" xmlns="http://www.w3.org/2000/svg">
<path d="M62.8223 89.148C62.8223 88.3316 62.9834 87.5229 63.2975 86.7695C63.6122 86.0154 64.072 85.3315 64.6521 84.7569C65.2323 84.1822 65.9206 83.728 66.6769 83.4205C67.4337 83.113 68.2429 82.9585 69.0599 82.9656C70.2643 82.9877 71.4357 83.3636 72.4276 84.0476C73.419 84.7315 74.1879 85.6931 74.6362 86.8109C75.0849 87.9292 75.1931 89.1547 74.9492 90.3343C74.7046 91.5139 74.1178 92.5953 73.2622 93.4437C72.4066 94.2916 71.3203 94.8684 70.1385 95.1025C68.9566 95.3365 67.7317 95.2167 66.6178 94.758C65.5033 94.2999 64.5495 93.5232 63.8744 92.5252C63.1993 91.5277 62.8333 90.3531 62.8223 89.148ZM64.8089 74.0784L64.0361 45.2641C63.9627 44.5714 64.0361 43.8711 64.2514 43.2086C64.4661 42.546 64.8177 41.936 65.2836 41.4183C65.7495 40.9004 66.3192 40.4864 66.9551 40.203C67.5915 39.9196 68.2804 39.7731 68.9765 39.7731C69.6731 39.7731 70.362 39.9196 70.9985 40.203C71.6344 40.4864 72.2041 40.9004 72.6699 41.4183C73.1358 41.936 73.4875 42.546 73.7022 43.2086C73.9175 43.8711 73.9909 44.5714 73.9175 45.2641L73.1999 74.0784C73.1999 75.1907 72.7583 76.2583 71.9711 77.0449C71.1845 77.8315 70.1169 78.2736 69.0047 78.2736C67.8918 78.2736 66.8248 77.8315 66.0382 77.0449C65.2516 76.2583 64.8089 75.1907 64.8089 74.0784Z" fill="#1ABBAC"/>
<path d="M68.9995 118.68C97.1989 118.68 120.059 95.8195 120.059 67.6201C120.059 39.4204 97.1989 16.5601 68.9995 16.5601C40.7998 16.5601 17.9395 39.4204 17.9395 67.6201C17.9395 95.8195 40.7998 118.68 68.9995 118.68Z" stroke="#1ABBAC" stroke-width="4" stroke-linecap="round" stroke-linejoin="round"/>
</svg>
