<svg width="12" height="15" viewBox="0 0 12 15" fill="none" xmlns="http://www.w3.org/2000/svg">
<path d="M9.70312 5.41548L9.07031 6.81534H0.524148L1.0419 5.41548H9.70312ZM8.48224 8.09375L7.78551 9.52557H0.524148L1.0419 8.09375H8.48224ZM11.3651 1.91903L10.3423 4.10511C10.1719 3.98579 9.9652 3.85582 9.7223 3.7152C9.48367 3.57031 9.20881 3.44886 8.89773 3.35085C8.59091 3.24858 8.25 3.19744 7.875 3.19744C7.28267 3.19744 6.76705 3.34659 6.32812 3.64489C5.8892 3.94318 5.5483 4.40767 5.3054 5.03835C5.06676 5.66903 4.94744 6.47869 4.94744 7.46733C4.94744 8.46449 5.06676 9.27628 5.3054 9.9027C5.5483 10.5249 5.8892 10.983 6.32812 11.277C6.76705 11.5668 7.28267 11.7116 7.875 11.7116C8.25 11.7116 8.59091 11.6626 8.89773 11.5646C9.20455 11.4666 9.47301 11.3494 9.70312 11.2131C9.9375 11.0767 10.1335 10.951 10.2912 10.8359L11.3267 13.022C10.8622 13.4055 10.3359 13.6953 9.74787 13.8913C9.1598 14.0831 8.53551 14.179 7.875 14.179C6.75852 14.179 5.76989 13.9148 4.90909 13.3864C4.05256 12.8537 3.38139 12.0888 2.8956 11.0916C2.4098 10.0902 2.1669 8.8821 2.1669 7.46733C2.1669 6.05682 2.4098 4.84872 2.8956 3.84304C3.38139 2.83736 4.05256 2.06818 4.90909 1.53551C5.76989 0.998579 6.75852 0.730113 7.875 0.730113C8.56108 0.730113 9.19602 0.832386 9.77983 1.03693C10.3636 1.24148 10.892 1.53551 11.3651 1.91903Z" fill="#0075C2"/>
</svg>
