<svg width="14" height="16" viewBox="0 0 14 16" fill="none" xmlns="http://www.w3.org/2000/svg">
<path d="M12.4444 0H1.55556C0.692222 0 0 0.685714 0 1.52381V12.1905C0 13.0286 0.692222 13.7143 1.55556 13.7143H4.66667L7 16L9.33333 13.7143H12.4444C13.3 13.7143 14 13.0286 14 12.1905V1.52381C14 0.685714 13.3 0 12.4444 0ZM12.4444 12.1905H8.68778L8.22889 12.64L7 13.8438L5.76333 12.6324L5.31222 12.1905H1.55556V1.52381H12.4444V12.1905ZM6.22222 9.90476H7.77778V11.4286H6.22222V9.90476ZM7 3.80952C7.85556 3.80952 8.55556 4.49524 8.55556 5.33333C8.55556 6.85714 6.22222 6.66667 6.22222 9.14286H7.77778C7.77778 7.42857 10.1111 7.2381 10.1111 5.33333C10.1111 3.64952 8.71889 2.28571 7 2.28571C5.28111 2.28571 3.88889 3.64952 3.88889 5.33333H5.44444C5.44444 4.49524 6.14444 3.80952 7 3.80952Z" fill="#707070"/>
</svg>
