<svg width="23" height="23" viewBox="0 0 23 23" fill="none" xmlns="http://www.w3.org/2000/svg">
<path d="M1 11.6291C1 9.2453 1 8.05342 1.54083 7.06535C2.08167 6.0773 3.06974 5.46407 5.04586 4.23764L7.1292 2.94466C9.21811 1.64822 10.2626 1 11.4167 1C12.5707 1 13.6152 1.64822 15.7042 2.94466L17.7875 4.23762C19.7636 5.46407 20.7517 6.0773 21.2925 7.06535C21.8333 8.05342 21.8333 9.2453 21.8333 11.6291V13.2135C21.8333 17.2769 21.8333 19.3086 20.6129 20.5709C19.3926 21.8333 17.4283 21.8333 13.5 21.8333H9.33333C5.40496 21.8333 3.44078 21.8333 2.22039 20.5709C1 19.3086 1 17.2769 1 13.2135V11.6291Z" stroke="#F7F7F7" stroke-width="2"/>
<path d="M8.29169 15.5833C9.1775 16.2399 10.2548 16.625 11.4167 16.625C12.5786 16.625 13.6559 16.2399 14.5417 15.5833" stroke="#F7F7F7" stroke-width="2" stroke-linecap="round"/>
</svg>
