<svg width="24" height="21" viewBox="0 0 24 21" fill="none" xmlns="http://www.w3.org/2000/svg">
<path d="M23 13.5714L19.8966 10.468M21.521 6.5462C21.521 3.48312 19.0379 1 15.9748 1C12.9117 1 10.4286 3.48312 10.4286 6.5462C10.4286 9.60929 12.9117 12.0924 15.9748 12.0924C19.0379 12.0924 21.521 9.60929 21.521 6.5462Z" stroke="#B1AFAF" stroke-linecap="round" stroke-linejoin="round"/>
<path d="M9.38094 2.04761L1.68299 8.78331C1.24896 9.16309 1 9.71174 1 10.2885L1 17.8571C1 18.9617 1.89544 19.8571 3 19.8571H6.23809V15.6666C6.23809 14.8331 6.56921 14.0337 7.15861 13.4443C7.74801 12.8549 8.54741 12.5238 9.38094 12.5238C10.2145 12.5238 11.0139 12.8549 11.6033 13.4443C12.1927 14.0337 12.5238 14.8331 12.5238 15.6666V18.8571C12.5238 19.4094 12.9715 19.8571 13.5238 19.8571H15.7619C16.8664 19.8571 17.7619 18.9617 17.7619 17.8571V13.4443" stroke="#B1AFAF" stroke-width="1.5" stroke-linecap="round" stroke-linejoin="round"/>
</svg>
