<svg width="21" height="24" viewBox="0 0 21 24" fill="none" xmlns="http://www.w3.org/2000/svg">
<path d="M7.76031 1.26703C7.66091 1.10136 7.48189 1 7.28869 1H1.9715C1.54399 1 1.27993 1.46638 1.49988 1.83297L7.43988 11.733C7.53928 11.8986 7.71831 12 7.9115 12H13.2287C13.6562 12 13.9203 11.5336 13.7003 11.167L7.76031 1.26703Z" fill="#055F9B"/>
<path fill-rule="evenodd" clip-rule="evenodd" d="M7.28862 0.449951H1.97143C1.11641 0.449951 0.588285 1.38272 1.02819 2.1159L6.96819 12.0159C7.16699 12.3472 7.52504 12.55 7.91143 12.55H13.2286C14.0836 12.55 14.6118 11.6172 14.1719 10.884L8.23187 0.984006C8.03307 0.652681 7.67501 0.449951 7.28862 0.449951ZM7.28862 0.999951C7.48182 0.999951 7.66085 1.10132 7.76025 1.26698L13.7002 11.167C13.9202 11.5336 13.6561 12 13.2286 12H7.91143C7.71824 12 7.53921 11.8986 7.43981 11.7329L1.49981 1.83292C1.27986 1.46634 1.54392 0.999951 1.97143 0.999951H7.28862Z" fill="#0075C2"/>
<path d="M13.4898 1.26703C13.5892 1.10136 13.7682 1 13.9614 1H19.2786C19.7061 1 19.9702 1.46638 19.7502 1.83297L13.8102 11.733C13.7108 11.8986 13.5318 12 13.3386 12H8.02143C7.59392 12 7.32986 11.5336 7.54981 11.167L13.4898 1.26703Z" fill="#056EB4"/>
<path fill-rule="evenodd" clip-rule="evenodd" d="M13.9615 0.449951H19.2787C20.1337 0.449951 20.6618 1.38272 20.2219 2.1159L14.2819 12.0159C14.0831 12.3472 13.7251 12.55 13.3387 12.55H8.0215C7.16647 12.55 6.63835 11.6172 7.07826 10.884L13.0183 0.984006C13.2171 0.652681 13.5751 0.449951 13.9615 0.449951ZM13.9615 0.999951C13.7683 0.999951 13.5893 1.10132 13.4899 1.26698L7.54988 11.167C7.32992 11.5336 7.59399 12 8.0215 12H13.3387C13.5319 12 13.7109 11.8986 13.8103 11.7329L19.7503 1.83292C19.9703 1.46634 19.7062 0.999951 19.2787 0.999951H13.9615Z" fill="#0075C2"/>
<path d="M7.1875 1.90239C7.1875 2.09699 7.0336 2.25474 6.84375 2.25474C6.6539 2.25474 6.5 2.09699 6.5 1.90239C6.5 1.7078 6.6539 1.55005 6.84375 1.55005C7.0336 1.55005 7.1875 1.7078 7.1875 1.90239Z" fill="#0075C2"/>
<path d="M5.98018 1.98833C5.98018 2.23039 5.78874 2.42661 5.55259 2.42661C5.31644 2.42661 5.125 2.23039 5.125 1.98833C5.125 1.74627 5.31644 1.55005 5.55259 1.55005C5.78874 1.55005 5.98018 1.74627 5.98018 1.98833Z" fill="#0075C2"/>
<path d="M7.05001 3.24297C7.05001 3.48502 6.85857 3.68125 6.62242 3.68125C6.38626 3.68125 6.19482 3.48502 6.19482 3.24297C6.19482 3.00091 6.38626 2.80469 6.62242 2.80469C6.85857 2.80469 7.05001 3.00091 7.05001 3.24297Z" fill="#0075C2"/>
<path d="M8.02769 2.64565C8.02769 2.76668 7.93197 2.86479 7.81389 2.86479C7.69582 2.86479 7.6001 2.76668 7.6001 2.64565C7.6001 2.52463 7.69582 2.42651 7.81389 2.42651C7.93197 2.42651 8.02769 2.52463 8.02769 2.64565Z" fill="#0075C2"/>
<path d="M5.76646 3.02383C5.76646 3.14486 5.67074 3.24297 5.55266 3.24297C5.43459 3.24297 5.33887 3.14486 5.33887 3.02383C5.33887 2.9028 5.43459 2.80469 5.55266 2.80469C5.67074 2.80469 5.76646 2.9028 5.76646 3.02383Z" fill="#0075C2"/>
<path d="M4.57505 1.68325C4.57505 1.80428 4.47933 1.90239 4.36126 1.90239C4.24318 1.90239 4.14746 1.80428 4.14746 1.68325C4.14746 1.56222 4.24318 1.46411 4.36126 1.46411C4.47933 1.46411 4.57505 1.56222 4.57505 1.68325Z" fill="#0075C2"/>
<path d="M7.81382 4.17544C7.81382 4.29647 7.7181 4.39458 7.60003 4.39458C7.48195 4.39458 7.38623 4.29647 7.38623 4.17544C7.38623 4.05441 7.48195 3.9563 7.60003 3.9563C7.7181 3.9563 7.81382 4.05441 7.81382 4.17544Z" fill="#0075C2"/>
<path d="M6.71385 4.39468C6.71385 4.51571 6.61813 4.61382 6.50005 4.61382C6.38197 4.61382 6.28625 4.51571 6.28625 4.39468C6.28625 4.27365 6.38197 4.17554 6.50005 4.17554C6.61813 4.17554 6.71385 4.27365 6.71385 4.39468Z" fill="#0075C2"/>
<path d="M8.84591 3.59956C8.84591 3.79653 8.69013 3.9562 8.49797 3.9562C8.3058 3.9562 8.15002 3.79653 8.15002 3.59956C8.15002 3.40259 8.3058 3.24292 8.49797 3.24292C8.69013 3.24292 8.84591 3.40259 8.84591 3.59956Z" fill="#0075C2"/>
<path d="M9.29954 4.61367C9.29954 4.7347 9.20382 4.83281 9.08574 4.83281C8.96767 4.83281 8.87195 4.7347 8.87195 4.61367C8.87195 4.49264 8.96767 4.39453 9.08574 4.39453C9.20382 4.39453 9.29954 4.49264 9.29954 4.61367Z" fill="#0075C2"/>
<path d="M18.05 15.5749C18.05 19.6756 14.7257 22.9999 10.625 22.9999C6.52424 22.9999 3.19995 19.6756 3.19995 15.5749C3.19995 11.4742 6.52424 8.1499 10.625 8.1499C14.7257 8.1499 18.05 11.4742 18.05 15.5749Z" fill="#F6F6F6"/>
<path fill-rule="evenodd" clip-rule="evenodd" d="M18.5999 15.5749C18.5999 19.9793 15.0294 23.5499 10.6249 23.5499C6.22043 23.5499 2.6499 19.9793 2.6499 15.5749C2.6499 11.1704 6.22043 7.59985 10.6249 7.59985C15.0294 7.59985 18.5999 11.1704 18.5999 15.5749ZM10.6249 22.9999C14.7256 22.9999 18.0499 19.6756 18.0499 15.5749C18.0499 11.4741 14.7256 8.14985 10.6249 8.14985C6.52419 8.14985 3.1999 11.4741 3.1999 15.5749C3.1999 19.6756 6.52419 22.9999 10.6249 22.9999Z" fill="#0075C2"/>
<path fill-rule="evenodd" clip-rule="evenodd" d="M3.7499 15.8499C3.59802 15.8499 3.4749 15.7267 3.4749 15.5749C3.4749 11.626 6.67607 8.42485 10.6249 8.42485C10.7768 8.42485 10.8999 8.54797 10.8999 8.69985C10.8999 8.85173 10.7768 8.97485 10.6249 8.97485C6.97982 8.97485 4.0249 11.9298 4.0249 15.5749C4.0249 15.7267 3.90178 15.8499 3.7499 15.8499Z" fill="#0075C2"/>
<path fill-rule="evenodd" clip-rule="evenodd" d="M17.4999 15.2998C17.6517 15.2998 17.7749 15.4229 17.7749 15.5748C17.7749 19.5236 14.5737 22.7248 10.6249 22.7248C10.473 22.7248 10.3499 22.6017 10.3499 22.4498C10.3499 22.2979 10.473 22.1748 10.6249 22.1748C14.2699 22.1748 17.2249 19.2199 17.2249 15.5748C17.2249 15.4229 17.348 15.2998 17.4999 15.2998Z" fill="#0075C2"/>
<path fill-rule="evenodd" clip-rule="evenodd" d="M16.675 15.5749C16.675 18.9162 13.9663 21.6249 10.625 21.6249C7.28363 21.6249 4.57495 18.9162 4.57495 15.5749C4.57495 12.2336 7.28363 9.5249 10.625 9.5249C13.9663 9.5249 16.675 12.2336 16.675 15.5749ZM10.625 21.0749C13.6625 21.0749 16.125 18.6125 16.125 15.5749C16.125 12.5373 13.6625 10.0749 10.625 10.0749C7.58738 10.0749 5.12495 12.5373 5.12495 15.5749C5.12495 18.6125 7.58738 21.0749 10.625 21.0749Z" fill="#0075C2"/>
<path fill-rule="evenodd" clip-rule="evenodd" d="M10.6249 20.2498C13.2068 20.2498 15.2999 18.1567 15.2999 15.5748C15.2999 15.4229 15.423 15.2998 15.5749 15.2998C15.7267 15.2998 15.8499 15.4229 15.8499 15.5748C15.8499 18.4605 13.5105 20.7998 10.6249 20.7998C10.473 20.7998 10.3499 20.6767 10.3499 20.5248C10.3499 20.3729 10.473 20.2498 10.6249 20.2498Z" fill="#08588C"/>
</svg>
