<svg width="60" height="60" viewBox="0 0 60 60" fill="none" xmlns="http://www.w3.org/2000/svg">
<path d="M15 0C12.9375 0 11.25 1.6875 11.25 3.75V56.25C11.25 58.3125 12.9375 60 15 60H52.5C54.5625 60 56.25 58.3125 56.25 56.25V15L41.25 0H15Z" fill="#E2E5E7"/>
<path d="M45 15H56.25L41.25 0V11.25C41.25 13.3125 42.9375 15 45 15Z" fill="#B0B7BD"/>
<path d="M56.25 26.25L45 15H56.25V26.25Z" fill="#CAD1D8"/>
<path d="M48.75 48.75C48.75 49.7813 47.9063 50.625 46.875 50.625H5.625C4.59375 50.625 3.75 49.7813 3.75 48.75V30C3.75 28.9687 4.59375 28.125 5.625 28.125H46.875C47.9063 28.125 48.75 28.9687 48.75 30V48.75Z" fill="#F15642"/>
<path d="M11.9233 35.5256C11.9233 35.0306 12.3133 34.4906 12.9415 34.4906H16.4046C18.3546 34.4906 20.1096 35.7956 20.1096 38.2968C20.1096 40.6668 18.3546 41.9868 16.4046 41.9868H13.9015V43.9668C13.9015 44.6268 13.4815 45 12.9415 45C12.4465 45 11.9233 44.6268 11.9233 43.9668V35.5256ZM13.9015 36.3787V40.1137H16.4046C17.4096 40.1137 18.2046 39.2268 18.2046 38.2968C18.2046 37.2487 17.4096 36.3787 16.4046 36.3787H13.9015Z" fill="white"/>
<path d="M23.0457 45C22.5507 45 22.0107 44.73 22.0107 44.0719V35.5556C22.0107 35.0175 22.5507 34.6256 23.0457 34.6256H26.4789C33.3301 34.6256 33.1801 45 26.6139 45H23.0457ZM23.9907 36.4556V43.1719H26.4789C30.527 43.1719 30.707 36.4556 26.4789 36.4556H23.9907Z" fill="white"/>
<path d="M35.6102 36.5757V38.9588H39.4333C39.9733 38.9588 40.5133 39.4988 40.5133 40.0219C40.5133 40.5169 39.9733 40.9219 39.4333 40.9219H35.6102V44.07C35.6102 44.595 35.2371 44.9982 34.7121 44.9982C34.0521 44.9982 33.6489 44.595 33.6489 44.07V35.5538C33.6489 35.0157 34.0539 34.6238 34.7121 34.6238H39.9752C40.6352 34.6238 41.0252 35.0157 41.0252 35.5538C41.0252 36.0338 40.6352 36.5738 39.9752 36.5738H35.6102V36.5757Z" fill="white"/>
<path d="M46.875 50.625H11.25V52.5H46.875C47.9063 52.5 48.75 51.6563 48.75 50.625V48.75C48.75 49.7813 47.9063 50.625 46.875 50.625Z" fill="#CAD1D8"/>
</svg>
