<svg width="21" height="21" viewBox="0 0 21 21" fill="none" xmlns="http://www.w3.org/2000/svg">
<path d="M1 4.91176C1 2.75136 2.75136 1 4.91176 1V1C7.07217 1 8.82353 2.75136 8.82353 4.91176V4.91176C8.82353 7.07217 7.07217 8.82353 4.91176 8.82353V8.82353C2.75136 8.82353 1 7.07217 1 4.91176V4.91176Z" stroke="#B1AFAF" stroke-width="1.5" stroke-linecap="round" stroke-linejoin="round"/>
<path d="M1 16.0882C1 13.9278 2.75136 12.1765 4.91176 12.1765V12.1765C7.07217 12.1765 8.82353 13.9278 8.82353 16.0882V16.0882C8.82353 18.2486 7.07217 20 4.91176 20V20C2.75136 20 1 18.2486 1 16.0882V16.0882Z" stroke="#B1AFAF" stroke-width="1.5" stroke-linecap="round" stroke-linejoin="round"/>
<path d="M12.1765 4.91176C12.1765 2.75136 13.9278 1 16.0882 1V1C18.2486 1 20 2.75136 20 4.91176V4.91176C20 7.07217 18.2486 8.82353 16.0882 8.82353V8.82353C13.9278 8.82353 12.1765 7.07217 12.1765 4.91176V4.91176Z" stroke="#B1AFAF" stroke-width="1.5" stroke-linecap="round" stroke-linejoin="round"/>
<path d="M12.1765 16.0882C12.1765 13.9278 13.9278 12.1765 16.0882 12.1765V12.1765C18.2486 12.1765 20 13.9278 20 16.0882V16.0882C20 18.2486 18.2486 20 16.0882 20V20C13.9278 20 12.1765 18.2486 12.1765 16.0882V16.0882Z" stroke="#B1AFAF" stroke-width="1.5" stroke-linecap="round" stroke-linejoin="round"/>
</svg>
